<svg version="1.1" id="Layer_1" xmlns="http://www.w3.org/2000/svg" xmlns:xlink="http://www.w3.org/1999/xlink" x="0px" y="0px"
	 width="100%" viewBox="0 0 280 174" enable-background="new 0 0 280 174" xml:space="preserve">
<path fill="#201026" opacity="1.000000" stroke="none" 
	d="
M281.000000,143.000000 
	C281.000000,144.388885 281.000000,145.777786 280.568542,147.583954 
	C274.221954,149.906433 268.136505,151.411270 262.441254,153.833435 
	C257.121216,156.095993 252.379669,159.700073 247.092667,162.062943 
	C236.337524,166.869659 224.918701,168.574738 213.159958,169.441116 
	C192.421875,170.969147 172.669327,168.771973 154.385925,158.041916 
	C152.359833,156.852859 149.703140,156.234985 147.334885,156.224075 
	C139.366074,156.187332 131.574783,156.987762 124.994904,162.400940 
	C123.397064,163.715454 121.093147,164.204346 119.074799,164.969772 
	C106.277130,169.823166 93.033409,171.467636 79.373901,171.137878 
	C74.105370,171.010696 68.278221,170.407639 64.000000,175.000000 
	C43.097179,175.000000 22.194357,175.000000 1.000000,175.000000 
	C1.000000,164.647598 1.000000,154.292450 1.317932,143.578308 
	C2.194748,143.571533 2.903169,143.804962 3.290899,144.293121 
	C17.094027,161.671631 35.616539,164.744507 56.277493,162.369934 
	C67.301773,161.102890 78.461639,160.238434 89.539986,160.421555 
	C102.519531,160.636108 115.017021,159.817200 126.772636,153.671204 
	C131.018036,151.451630 135.475418,149.349365 140.087418,148.219620 
	C143.200806,147.457001 147.101669,147.659439 150.039047,148.889664 
	C156.435059,151.568405 162.152649,156.006210 168.654129,158.270309 
	C200.119904,169.228119 230.677887,167.833603 259.709839,150.201004 
	C266.260834,146.222244 272.788086,142.101196 281.000000,143.000000 
z"/>
<path fill="#301238" opacity="1.000000" stroke="none" 
	d="
M281.000000,110.000000 
	C281.000000,111.714378 281.000000,113.428749 280.582031,115.573669 
	C275.097382,115.665375 271.238800,117.822762 267.923584,121.533249 
	C256.723419,134.068802 243.379623,143.406464 226.347000,145.202454 
	C216.006165,146.292831 205.396637,145.981384 195.003143,145.132553 
	C182.371353,144.100906 171.764999,138.162476 163.842056,128.163361 
	C160.451324,123.884102 157.913773,118.936836 154.873566,114.369637 
	C151.493851,109.292366 147.663254,108.869698 143.402817,113.198128 
	C140.607559,116.037987 137.998413,119.075180 135.459641,122.150871 
	C124.821960,135.038269 111.366577,141.475952 94.480156,141.078339 
	C81.714836,140.777725 68.904167,140.685089 56.164734,141.404251 
	C36.826515,142.495895 21.563768,135.078918 14.263275,116.782066 
	C6.039755,96.171875 6.245245,74.834068 11.652189,53.497704 
	C15.933608,36.602783 29.596861,25.920376 47.019886,26.047287 
	C61.277050,26.151138 75.530136,26.739521 89.787445,26.949444 
	C93.590302,27.005434 97.418457,26.090050 101.206696,26.258160 
	C114.955360,26.868277 126.456512,32.730728 136.460114,41.916508 
	C143.336075,48.230350 147.580261,48.417740 155.622192,43.280846 
	C161.919037,39.258644 168.025208,34.725517 174.784042,31.679689 
	C193.387024,23.296371 212.754059,24.450031 232.023804,29.032043 
	C236.111954,30.004131 241.107162,30.756870 242.570251,35.900597 
	C240.092331,35.923450 238.047882,35.877026 235.875397,35.513306 
	C234.313034,34.173664 233.019882,32.699936 231.422073,32.200089 
	C218.147644,28.047409 204.479507,28.113869 190.910583,29.660824 
	C177.934814,31.140156 167.077545,37.498154 157.820755,46.656769 
	C148.616089,55.763809 145.225388,55.698006 135.970947,46.470741 
	C134.557861,45.061810 133.272156,43.484097 131.696198,42.289665 
	C129.602219,40.702618 127.281097,39.415272 124.943588,37.617420 
	C122.888298,36.768150 120.946991,36.300613 118.879242,35.517822 
	C116.866043,33.991302 115.070511,31.934343 113.076279,31.719196 
	C105.548492,30.907074 97.961075,30.500019 90.386658,30.307108 
	C81.836716,30.089352 73.267258,30.520960 64.723618,30.203630 
	C54.833466,29.836290 44.872978,27.877565 35.288918,31.833616 
	C33.311287,32.649929 31.748411,34.471035 29.624454,35.895855 
	C28.445820,36.639870 27.637104,37.317051 26.483389,38.044842 
	C20.281168,40.745979 17.819168,46.172230 16.067812,51.645538 
	C9.600000,71.858643 9.198244,92.251579 16.104475,112.435539 
	C18.592731,119.707649 22.629932,126.201881 29.210241,130.864410 
	C39.433517,138.108170 50.826050,138.419250 62.695679,137.662491 
	C72.310417,137.049484 82.023491,136.762558 91.621819,137.400742 
	C105.169655,138.301483 116.892975,134.964966 126.888779,125.644348 
	C135.312424,117.789696 139.824509,107.660110 144.223022,97.340202 
	C145.247696,94.936066 147.992737,93.265175 149.946228,91.256912 
	C151.940567,93.278038 154.182114,95.114449 155.865738,97.367737 
	C157.901352,100.092064 159.464508,103.169403 161.200043,106.551208 
	C161.167969,111.216263 161.167969,115.424072 161.167969,119.679626 
	C162.750626,119.882095 163.872253,120.025597 165.102966,120.487900 
	C168.454224,124.205223 171.696411,127.603745 175.024582,131.365387 
	C176.072662,132.542984 177.034775,133.357452 178.111710,134.489410 
	C180.303650,136.309219 182.178787,138.334152 184.491135,139.227676 
	C197.918655,144.416367 211.948700,143.563263 225.847458,142.361801 
	C231.192871,141.899704 236.553726,140.065247 241.607132,138.088181 
	C253.359024,133.490402 261.392853,124.514000 268.497528,114.430084 
	C273.422607,107.439751 273.665527,107.610909 281.000000,110.000000 
z"/>
<path fill="#2D1235" opacity="1.000000" stroke="none" 
	d="
M243.003693,35.831314 
	C241.107162,30.756870 236.111954,30.004131 232.023804,29.032043 
	C212.754059,24.450031 193.387024,23.296371 174.784042,31.679689 
	C168.025208,34.725517 161.919037,39.258644 155.622192,43.280846 
	C147.580261,48.417740 143.336075,48.230350 136.460114,41.916508 
	C126.456512,32.730728 114.955360,26.868277 101.206696,26.258160 
	C97.418457,26.090050 93.590302,27.005434 89.787445,26.949444 
	C75.530136,26.739521 61.277050,26.151138 47.019886,26.047287 
	C29.596861,25.920376 15.933608,36.602783 11.652189,53.497704 
	C6.245245,74.834068 6.039755,96.171875 14.263275,116.782066 
	C21.563768,135.078918 36.826515,142.495895 56.164734,141.404251 
	C68.904167,140.685089 81.714836,140.777725 94.480156,141.078339 
	C111.366577,141.475952 124.821960,135.038269 135.459641,122.150871 
	C137.998413,119.075180 140.607559,116.037987 143.402817,113.198128 
	C147.663254,108.869698 151.493851,109.292366 154.873566,114.369637 
	C157.913773,118.936836 160.451324,123.884102 163.842056,128.163361 
	C171.764999,138.162476 182.371353,144.100906 195.003143,145.132553 
	C205.396637,145.981384 216.006165,146.292831 226.347000,145.202454 
	C243.379623,143.406464 256.723419,134.068802 267.923584,121.533249 
	C271.238800,117.822762 275.097382,115.665375 280.582031,116.002106 
	C281.000000,117.714355 281.000000,119.428719 280.574524,121.572098 
	C272.853149,121.386612 268.100555,126.019630 263.228638,130.299377 
	C255.523911,137.067627 247.104675,142.389526 237.201981,145.584427 
	C224.344833,149.732498 211.200333,149.603775 198.112320,148.699844 
	C182.510818,147.622345 169.266937,141.110779 159.401810,128.559631 
	C149.786255,116.326019 146.971893,116.315834 135.380905,127.017776 
	C124.322067,137.228378 111.923538,144.048676 95.942612,143.182129 
	C84.523804,142.562943 73.015137,143.739349 61.543522,143.911682 
	C52.418621,144.048767 43.208931,144.859009 34.430019,141.181961 
	C20.275116,135.253189 12.374043,123.924759 9.416654,109.635284 
	C7.144650,98.657440 7.056192,87.227669 5.996832,75.570450 
	C5.996992,73.427795 5.997011,71.713554 6.172972,69.645691 
	C6.897721,64.860825 7.446528,60.429592 7.995433,55.665207 
	C7.996113,54.887852 7.996696,54.443645 8.190800,53.706165 
	C9.588399,50.274731 10.792478,47.136570 11.997012,43.748482 
	C11.997468,43.498554 11.998969,42.998695 12.259579,42.789425 
	C14.013383,40.053436 15.506577,37.526718 17.271700,34.813801 
	C19.362385,32.751625 21.181143,30.875647 23.372791,28.956989 
	C37.299580,22.144144 51.584183,22.294909 66.203323,23.871056 
	C73.408287,24.647850 80.764633,24.053125 88.052246,24.023396 
	C100.678902,23.971882 113.511360,22.610798 124.979767,29.838352 
	C128.775635,32.230564 132.727692,34.446972 136.224442,37.226681 
	C143.316864,42.864719 150.096420,43.070404 157.732147,38.010822 
	C163.803116,33.988087 170.325333,30.464701 177.028290,27.616442 
	C189.785995,22.195358 203.413696,22.482719 216.919067,23.125423 
	C236.612350,24.062605 251.826599,32.789497 262.255371,49.780296 
	C268.517151,59.982170 268.708649,59.863068 280.013306,56.152382 
	C280.325287,56.049984 280.670349,56.048531 281.000000,56.000000 
	C281.000000,59.361286 281.000000,62.722576 280.678192,66.654541 
	C279.349792,68.270126 278.113800,69.174522 277.373871,70.382729 
	C272.535492,78.283401 269.895905,78.329323 264.981812,70.418190 
	C264.200958,69.161133 263.824707,67.619240 262.918518,66.482361 
	C261.866516,65.162544 260.436340,64.144180 259.104187,62.534561 
	C259.038086,58.152363 259.038086,54.230572 259.038086,49.853882 
	C255.936661,49.853882 253.479568,49.853882 250.919601,49.530724 
	C248.998917,47.121178 247.181122,45.034790 245.295486,42.523911 
	C244.392197,40.043442 247.024384,36.757141 243.003693,35.831314 
z"/>
<path fill="#200F26" opacity="1.000000" stroke="none" 
	d="
M1.000000,29.000000 
	C1.000000,19.712271 1.000000,10.424542 1.000000,1.000000 
	C21.354046,1.000000 41.708366,1.000000 62.746632,1.303463 
	C64.965591,2.077662 66.483673,2.885253 68.038414,2.963395 
	C76.837906,3.405661 85.644112,3.752494 94.451935,3.981864 
	C108.216316,4.340312 121.544212,6.291334 134.150040,12.431649 
	C140.938538,15.738337 148.392334,17.301306 155.991867,15.249454 
	C161.424561,13.782648 166.714462,11.795238 172.101425,10.149340 
	C188.924530,5.009331 206.099487,3.890976 223.430161,6.465245 
	C237.384659,8.538019 250.588470,12.663841 262.251648,21.236286 
	C267.584686,25.156069 273.869751,27.907047 281.000000,26.000000 
	C281.000000,28.041666 281.000000,30.083334 280.544708,32.562531 
	C271.322815,34.933613 264.986572,29.633209 258.942444,25.015160 
	C240.722382,11.094030 219.605469,10.118825 198.160492,10.538707 
	C183.910217,10.817720 170.993790,16.544273 157.886520,21.406036 
	C150.918457,23.990643 144.059097,23.560125 137.054245,20.499598 
	C125.035080,15.248240 113.001923,10.513390 99.257996,10.777506 
	C83.165421,11.086757 67.044006,9.606652 50.928818,9.104282 
	C32.773117,8.538303 16.094347,12.047197 3.828902,27.078255 
	C3.138205,27.924690 1.954333,28.368692 1.000000,29.000000 
z"/>
<path fill="#1E0E24" opacity="1.000000" stroke="none" 
	d="
M281.000000,25.531321 
	C273.869751,27.907047 267.584686,25.156069 262.251648,21.236286 
	C250.588470,12.663841 237.384659,8.538019 223.430161,6.465245 
	C206.099487,3.890976 188.924530,5.009331 172.101425,10.149340 
	C166.714462,11.795238 161.424561,13.782648 155.991867,15.249454 
	C148.392334,17.301306 140.938538,15.738337 134.150040,12.431649 
	C121.544212,6.291334 108.216316,4.340312 94.451935,3.981864 
	C85.644112,3.752494 76.837906,3.405661 68.038414,2.963395 
	C66.483673,2.885253 64.965591,2.077662 63.215290,1.303463 
	C135.666687,1.000000 208.333374,1.000000 281.000000,1.000000 
	C281.000000,9.091493 281.000000,17.077066 281.000000,25.531321 
z"/>
<path fill="#1F0F24" opacity="1.000000" stroke="none" 
	d="
M64.468658,175.000000 
	C68.278221,170.407639 74.105370,171.010696 79.373901,171.137878 
	C93.033409,171.467636 106.277130,169.823166 119.074799,164.969772 
	C121.093147,164.204346 123.397064,163.715454 124.994904,162.400940 
	C131.574783,156.987762 139.366074,156.187332 147.334885,156.224075 
	C149.703140,156.234985 152.359833,156.852859 154.385925,158.041916 
	C172.669327,168.771973 192.421875,170.969147 213.159958,169.441116 
	C224.918701,168.574738 236.337524,166.869659 247.092667,162.062943 
	C252.379669,159.700073 257.121216,156.095993 262.441254,153.833435 
	C268.136505,151.411270 274.221954,149.906433 280.568542,148.000610 
	C281.000000,150.041672 281.000000,152.083328 280.569458,154.564941 
	C273.834259,155.132675 268.219879,156.718246 263.026154,160.758911 
	C258.887939,163.978378 253.812805,165.998108 249.138580,168.522644 
	C245.103363,170.702072 241.047012,172.842392 237.000000,175.000000 
	C179.645767,175.000000 122.291542,175.000000 64.468658,175.000000 
z"/>
<path fill="#281130" opacity="1.000000" stroke="none" 
	d="
M22.999901,28.999670 
	C21.181143,30.875647 19.362385,32.751625 16.940336,34.921677 
	C14.891020,37.810066 13.444995,40.404381 11.998969,42.998695 
	C11.998969,42.998695 11.997468,43.498554 11.691299,43.900856 
	C10.255846,47.535252 9.126561,50.767345 7.997278,53.999443 
	C7.996696,54.443645 7.996113,54.887852 7.697727,55.869438 
	C6.932292,60.937656 6.464661,65.468491 5.997029,69.999321 
	C5.997011,71.713554 5.996992,73.427795 5.689301,75.793411 
	C4.921848,78.315445 4.010594,80.203583 4.082237,82.053650 
	C4.358546,89.188927 4.937518,96.312813 5.424291,103.439545 
	C7.200690,129.447342 27.681189,150.759567 56.790646,147.686676 
	C67.460632,146.560318 78.302795,146.932343 89.067757,146.875809 
	C99.734772,146.819824 110.366310,147.078476 119.930206,141.068909 
	C126.266045,137.087708 132.784363,133.397675 139.203125,129.547501 
	C145.052124,126.039093 148.454666,126.137840 153.826828,130.170898 
	C155.551651,131.465805 157.253220,132.821762 158.796768,134.323181 
	C168.511505,143.772736 179.797668,150.207184 193.445267,151.483643 
	C200.544785,152.147675 207.732864,151.906158 214.881927,151.990753 
	C233.800461,152.214615 249.597214,144.009583 264.213623,133.137238 
	C269.352509,129.314697 274.363220,126.220848 281.000000,127.000000 
	C281.000000,127.750000 281.000000,128.500000 280.573059,129.625504 
	C274.010742,129.450668 269.494446,132.945709 264.640228,135.905991 
	C256.863495,140.648544 249.204697,145.853439 240.858734,149.335327 
	C225.422455,155.775269 209.033234,155.306244 192.729675,153.398895 
	C184.065689,152.385300 175.667938,150.208908 168.397232,145.102158 
	C164.059219,142.055252 159.911652,138.722702 155.806213,135.362518 
	C149.493866,130.195999 145.093079,129.646759 137.994888,133.551483 
	C136.105759,134.590683 134.388458,135.937149 132.540588,137.057297 
	C123.569679,142.495361 114.691589,148.180450 103.607681,148.108276 
	C97.325760,148.067368 91.037392,147.896774 84.762810,148.107925 
	C75.136810,148.431900 65.494858,148.749985 55.907108,149.603394 
	C47.254078,150.373596 39.013336,149.454590 31.032413,146.022644 
	C15.734859,139.444412 8.328596,126.766205 4.075520,111.536209 
	C3.436942,109.249512 2.043987,107.173485 0.999999,105.000000 
	C1.000000,89.979103 1.000000,74.958214 1.293787,59.284622 
	C2.771630,55.569454 4.213394,52.579399 5.097686,49.432686 
	C10.608681,29.822058 24.698145,18.875313 44.965111,19.037722 
	C64.924309,19.197664 84.890808,19.408821 104.832611,20.164520 
	C110.499489,20.379269 116.297691,22.020416 121.659752,24.016993 
	C127.070610,26.031740 132.122650,29.116713 137.135147,32.067059 
	C143.074677,35.563046 149.110565,36.028255 155.291946,33.245525 
	C160.600815,30.855579 165.549713,27.514698 171.021439,25.677135 
	C177.476913,23.509199 184.323517,22.505941 190.670822,21.173775 
	C180.054764,25.482716 169.372894,28.858088 159.594543,33.963860 
	C150.021500,38.962414 142.025360,39.017601 133.322281,32.391739 
	C125.860497,26.710899 117.185028,22.541231 107.681122,22.191523 
	C86.597908,21.415741 65.486008,21.052311 44.389969,21.184807 
	C36.660534,21.233355 28.761837,22.673594 22.999901,28.999670 
z"/>
<path fill="#230F2A" opacity="1.000000" stroke="none" 
	d="
M1.000000,29.458069 
	C1.954333,28.368692 3.138205,27.924690 3.828902,27.078255 
	C16.094347,12.047197 32.773117,8.538303 50.928818,9.104282 
	C67.044006,9.606652 83.165421,11.086757 99.257996,10.777506 
	C113.001923,10.513390 125.035080,15.248240 137.054245,20.499598 
	C144.059097,23.560125 150.918457,23.990643 157.886520,21.406036 
	C170.993790,16.544273 183.910217,10.817720 198.160492,10.538707 
	C219.605469,10.118825 240.722382,11.094030 258.942444,25.015160 
	C264.986572,29.633209 271.322815,34.933613 280.544708,33.000031 
	C281.000000,34.388889 281.000000,35.777779 280.603210,37.601185 
	C273.775940,39.573696 268.610046,37.207928 263.650543,33.243042 
	C258.598114,29.203876 253.455887,25.080021 247.791122,22.040335 
	C230.112289,12.553989 210.761017,12.264676 191.735245,14.950000 
	C180.424347,16.546434 169.537720,21.565224 158.641205,25.541029 
	C150.835144,28.389221 143.545837,28.880745 136.087326,24.611786 
	C132.067627,22.311054 127.684540,20.628922 123.415215,18.783813 
	C113.367325,14.441323 102.619652,14.737640 92.021927,14.368600 
	C83.239616,14.062777 74.439186,14.286273 65.646851,14.256558 
	C55.871086,14.223519 46.025051,13.418791 36.338615,14.326551 
	C25.767719,15.317197 16.703413,20.425465 9.754570,28.692804 
	C6.690012,32.338844 3.909479,36.223614 0.999999,40.000000 
	C1.000000,36.638714 1.000000,33.277424 1.000000,29.458069 
z"/>
<path fill="#221029" opacity="1.000000" stroke="none" 
	d="
M281.000000,142.625000 
	C272.788086,142.101196 266.260834,146.222244 259.709839,150.201004 
	C230.677887,167.833603 200.119904,169.228119 168.654129,158.270309 
	C162.152649,156.006210 156.435059,151.568405 150.039047,148.889664 
	C147.101669,147.659439 143.200806,147.457001 140.087418,148.219620 
	C135.475418,149.349365 131.018036,151.451630 126.772636,153.671204 
	C115.017021,159.817200 102.519531,160.636108 89.539986,160.421555 
	C78.461639,160.238434 67.301773,161.102890 56.277493,162.369934 
	C35.616539,164.744507 17.094027,161.671631 3.290899,144.293121 
	C2.903169,143.804962 2.194748,143.571533 1.317932,143.109650 
	C1.000000,139.638718 1.000000,136.277420 1.302690,132.597992 
	C3.318152,134.288437 5.156122,136.204346 6.723270,138.320786 
	C16.535894,151.572800 29.644327,158.351715 46.134102,157.950562 
	C64.705360,157.498795 83.263336,156.476501 101.835167,156.083588 
	C110.733734,155.895309 118.891441,153.850632 126.542923,149.367691 
	C138.602188,142.302292 150.367996,141.166275 162.090988,150.543259 
	C165.638306,153.380676 170.090103,155.386597 174.435730,156.871918 
	C188.810730,161.785294 203.529251,162.827789 218.716461,161.204254 
	C233.390884,159.635544 246.991730,155.978027 259.482330,147.849487 
	C265.911438,143.665619 272.448853,138.798828 281.000000,140.000000 
	C281.000000,140.750000 281.000000,141.500000 281.000000,142.625000 
z"/>
<path fill="#2A1032" opacity="1.000000" stroke="none" 
	d="
M281.000000,126.583336 
	C274.363220,126.220848 269.352509,129.314697 264.213623,133.137238 
	C249.597214,144.009583 233.800461,152.214615 214.881927,151.990753 
	C207.732864,151.906158 200.544785,152.147675 193.445267,151.483643 
	C179.797668,150.207184 168.511505,143.772736 158.796768,134.323181 
	C157.253220,132.821762 155.551651,131.465805 153.826828,130.170898 
	C148.454666,126.137840 145.052124,126.039093 139.203125,129.547501 
	C132.784363,133.397675 126.266045,137.087708 119.930206,141.068909 
	C110.366310,147.078476 99.734772,146.819824 89.067757,146.875809 
	C78.302795,146.932343 67.460632,146.560318 56.790646,147.686676 
	C27.681189,150.759567 7.200690,129.447342 5.424291,103.439545 
	C4.937518,96.312813 4.358546,89.188927 4.082237,82.053650 
	C4.010594,80.203583 4.921848,78.315445 5.689159,76.221832 
	C7.056192,87.227669 7.144650,98.657440 9.416654,109.635284 
	C12.374043,123.924759 20.275116,135.253189 34.430019,141.181961 
	C43.208931,144.859009 52.418621,144.048767 61.543522,143.911682 
	C73.015137,143.739349 84.523804,142.562943 95.942612,143.182129 
	C111.923538,144.048676 124.322067,137.228378 135.380905,127.017776 
	C146.971893,116.315834 149.786255,116.326019 159.401810,128.559631 
	C169.266937,141.110779 182.510818,147.622345 198.112320,148.699844 
	C211.200333,149.603775 224.344833,149.732498 237.201981,145.584427 
	C247.104675,142.389526 255.523911,137.067627 263.228638,130.299377 
	C268.100555,126.019630 272.853149,121.386612 280.574524,122.000565 
	C281.000000,123.388893 281.000000,124.777779 281.000000,126.583336 
z"/>
<path fill="#32123B" opacity="1.000000" stroke="none" 
	d="
M259.170288,62.994968 
	C260.436340,64.144180 261.866516,65.162544 262.918518,66.482361 
	C263.824707,67.619240 264.200958,69.161133 264.981812,70.418190 
	C269.895905,78.329323 272.535492,78.283401 277.373871,70.382729 
	C278.113800,69.174522 279.349792,68.270126 280.678192,67.112610 
	C281.000000,81.020897 281.000000,95.041786 281.000000,109.531342 
	C273.665527,107.610909 273.422607,107.439751 268.497528,114.430084 
	C261.392853,124.514000 253.359024,133.490402 241.607132,138.088181 
	C236.553726,140.065247 231.192871,141.899704 225.847458,142.361801 
	C211.948700,143.563263 197.918655,144.416367 184.491135,139.227676 
	C182.178787,138.334152 180.303650,136.309219 178.551819,134.421387 
	C181.249710,134.080750 183.622360,134.125671 186.160934,134.464920 
	C188.178131,135.769272 189.924896,137.324203 191.897308,137.702347 
	C206.507736,140.503464 221.157333,141.421600 235.676498,137.166748 
	C237.274872,136.698349 238.569458,135.193268 240.426819,134.103592 
	C244.028534,134.587677 245.634109,133.355804 245.737213,130.007721 
	C249.728775,126.712570 253.370132,123.437218 257.399506,120.081573 
	C258.319366,118.675995 258.851196,117.350723 259.686829,115.902603 
	C261.277130,114.128174 263.568268,112.536674 263.671265,110.814323 
	C264.059448,104.323433 264.874939,97.520378 263.411438,91.335625 
	C261.215485,82.055405 257.233887,73.197701 254.406006,64.098770 
	C256.257019,63.689793 257.713654,63.342381 259.170288,62.994968 
z"/>
<path fill="#25102B" opacity="1.000000" stroke="none" 
	d="
M281.000000,134.000000 
	C281.000000,134.750000 281.000000,135.500000 280.555664,136.625031 
	C274.506500,136.387222 269.750061,138.253372 265.187317,141.463989 
	C254.485504,148.994446 243.160339,155.721512 229.978943,157.307220 
	C218.510208,158.686890 206.823486,159.350845 195.296417,158.855988 
	C182.516876,158.307358 170.702454,154.226349 160.166916,146.142761 
	C152.086914,139.943237 143.251968,137.350128 132.948334,143.653992 
	C120.607346,151.204315 107.020370,155.103683 92.004013,154.223984 
	C80.600456,153.555939 69.016907,154.333496 57.620953,155.509552 
	C35.559250,157.786316 17.376369,152.291382 5.429241,132.229324 
	C4.276443,130.293488 2.491496,128.734131 1.000001,127.000000 
	C1.000000,123.969406 1.000000,120.938812 1.305927,117.605377 
	C2.642261,118.959435 3.888123,120.520996 4.670079,122.287857 
	C13.437697,142.098724 27.926540,152.921494 50.274544,152.046585 
	C65.068504,151.467392 79.909798,150.601883 94.675072,151.205643 
	C109.454056,151.809967 122.108322,146.897797 134.205429,139.480148 
	C143.260818,133.927597 148.007080,134.069519 156.605408,140.116531 
	C162.303925,144.124176 167.861176,148.888962 174.244614,151.265594 
	C196.381165,159.507309 219.110672,159.707764 241.224960,151.593140 
	C251.062637,147.983292 259.682434,141.163574 269.167480,136.426392 
	C272.647552,134.688339 277.029480,134.756027 281.000000,134.000000 
z"/>
<path fill="#27102E" opacity="1.000000" stroke="none" 
	d="
M281.000000,133.600006 
	C277.029480,134.756027 272.647552,134.688339 269.167480,136.426392 
	C259.682434,141.163574 251.062637,147.983292 241.224960,151.593140 
	C219.110672,159.707764 196.381165,159.507309 174.244614,151.265594 
	C167.861176,148.888962 162.303925,144.124176 156.605408,140.116531 
	C148.007080,134.069519 143.260818,133.927597 134.205429,139.480148 
	C122.108322,146.897797 109.454056,151.809967 94.675072,151.205643 
	C79.909798,150.601883 65.068504,151.467392 50.274544,152.046585 
	C27.926540,152.921494 13.437697,142.098724 4.670079,122.287857 
	C3.888123,120.520996 2.642261,118.959435 1.305927,117.151260 
	C1.000000,113.307091 1.000000,109.614182 0.999999,105.460632 
	C2.043987,107.173485 3.436942,109.249512 4.075520,111.536209 
	C8.328596,126.766205 15.734859,139.444412 31.032413,146.022644 
	C39.013336,149.454590 47.254078,150.373596 55.907108,149.603394 
	C65.494858,148.749985 75.136810,148.431900 84.762810,148.107925 
	C91.037392,147.896774 97.325760,148.067368 103.607681,148.108276 
	C114.691589,148.180450 123.569679,142.495361 132.540588,137.057297 
	C134.388458,135.937149 136.105759,134.590683 137.994888,133.551483 
	C145.093079,129.646759 149.493866,130.195999 155.806213,135.362518 
	C159.911652,138.722702 164.059219,142.055252 168.397232,145.102158 
	C175.667938,150.208908 184.065689,152.385300 192.729675,153.398895 
	C209.033234,155.306244 225.422455,155.775269 240.858734,149.335327 
	C249.204697,145.853439 256.863495,140.648544 264.640228,135.905991 
	C269.494446,132.945709 274.010742,129.450668 280.573059,130.000504 
	C281.000000,131.066666 281.000000,132.133347 281.000000,133.600006 
z"/>
<path fill="#25102B" opacity="1.000000" stroke="none" 
	d="
M0.999999,40.449982 
	C3.909479,36.223614 6.690012,32.338844 9.754570,28.692804 
	C16.703413,20.425465 25.767719,15.317197 36.338615,14.326551 
	C46.025051,13.418791 55.871086,14.223519 65.646851,14.256558 
	C74.439186,14.286273 83.239616,14.062777 92.021927,14.368600 
	C102.619652,14.737640 113.367325,14.441323 123.415215,18.783813 
	C127.684540,20.628922 132.067627,22.311054 136.087326,24.611786 
	C143.545837,28.880745 150.835144,28.389221 158.641205,25.541029 
	C169.537720,21.565224 180.424347,16.546434 191.735245,14.950000 
	C210.761017,12.264676 230.112289,12.553989 247.791122,22.040335 
	C253.455887,25.080021 258.598114,29.203876 263.650543,33.243042 
	C268.610046,37.207928 273.775940,39.573696 280.603210,38.017853 
	C281.000000,39.066669 281.000000,40.133339 280.594971,41.646889 
	C273.542053,44.141827 268.444519,41.886753 263.492432,37.212406 
	C258.568115,32.564259 253.186630,28.103111 247.299789,24.829052 
	C231.250473,15.902968 213.619522,15.319369 195.802200,16.536320 
	C182.697372,17.431398 170.931885,22.529005 159.455521,28.333147 
	C151.140717,32.538334 143.589828,32.176456 135.357803,27.503601 
	C126.296600,22.360067 116.891487,17.470533 105.816216,17.859737 
	C97.537643,18.150660 89.233025,18.230232 80.956894,17.933231 
	C69.494888,17.521902 58.034912,15.946492 46.598854,16.165302 
	C26.824430,16.543653 11.505673,24.471651 4.367345,44.327244 
	C3.742995,46.063904 2.145489,47.450699 1.000000,49.000000 
	C1.000000,46.299988 1.000000,43.599972 0.999999,40.449982 
z"/>
<path fill="#27102E" opacity="1.000000" stroke="none" 
	d="
M1.000000,49.454109 
	C2.145489,47.450699 3.742995,46.063904 4.367345,44.327244 
	C11.505673,24.471651 26.824430,16.543653 46.598854,16.165302 
	C58.034912,15.946492 69.494888,17.521902 80.956894,17.933231 
	C89.233025,18.230232 97.537643,18.150660 105.816216,17.859737 
	C116.891487,17.470533 126.296600,22.360067 135.357803,27.503601 
	C143.589828,32.176456 151.140717,32.538334 159.455521,28.333147 
	C170.931885,22.529005 182.697372,17.431398 195.802200,16.536320 
	C213.619522,15.319369 231.250473,15.902968 247.299789,24.829052 
	C253.186630,28.103111 258.568115,32.564259 263.492432,37.212406 
	C268.444519,41.886753 273.542053,44.141827 280.594971,42.046883 
	C281.000000,43.388889 281.000000,44.777779 280.584839,46.603973 
	C272.057007,49.689064 266.599121,45.896572 261.596680,39.943790 
	C252.235626,28.804443 240.226135,22.000309 225.751389,20.120195 
	C220.910828,19.491457 215.921707,20.006227 210.600403,19.998325 
	C209.133377,19.998316 208.066422,19.998270 206.631134,19.820343 
	C201.746201,19.159891 197.097534,17.384584 192.666290,20.997732 
	C191.888931,20.997766 191.444748,20.997751 191.000549,20.997738 
	C184.323517,22.505941 177.476913,23.509199 171.021439,25.677135 
	C165.549713,27.514698 160.600815,30.855579 155.291946,33.245525 
	C149.110565,36.028255 143.074677,35.563046 137.135147,32.067059 
	C132.122650,29.116713 127.070610,26.031740 121.659752,24.016993 
	C116.297691,22.020416 110.499489,20.379269 104.832611,20.164520 
	C84.890808,19.408821 64.924309,19.197664 44.965111,19.037722 
	C24.698145,18.875313 10.608681,29.822058 5.097686,49.432686 
	C4.213394,52.579399 2.771630,55.569454 1.293787,58.815964 
	C1.000000,55.969406 1.000000,52.938812 1.000000,49.454109 
z"/>
<path fill="#230F2A" opacity="1.000000" stroke="none" 
	d="
M1.000001,127.416664 
	C2.491496,128.734131 4.276443,130.293488 5.429241,132.229324 
	C17.376369,152.291382 35.559250,157.786316 57.620953,155.509552 
	C69.016907,154.333496 80.600456,153.555939 92.004013,154.223984 
	C107.020370,155.103683 120.607346,151.204315 132.948334,143.653992 
	C143.251968,137.350128 152.086914,139.943237 160.166916,146.142761 
	C170.702454,154.226349 182.516876,158.307358 195.296417,158.855988 
	C206.823486,159.350845 218.510208,158.686890 229.978943,157.307220 
	C243.160339,155.721512 254.485504,148.994446 265.187317,141.463989 
	C269.750061,138.253372 274.506500,136.387222 280.555664,137.000031 
	C281.000000,137.750000 281.000000,138.500000 281.000000,139.625000 
	C272.448853,138.798828 265.911438,143.665619 259.482330,147.849487 
	C246.991730,155.978027 233.390884,159.635544 218.716461,161.204254 
	C203.529251,162.827789 188.810730,161.785294 174.435730,156.871918 
	C170.090103,155.386597 165.638306,153.380676 162.090988,150.543259 
	C150.367996,141.166275 138.602188,142.302292 126.542923,149.367691 
	C118.891441,153.850632 110.733734,155.895309 101.835167,156.083588 
	C83.263336,156.476501 64.705360,157.498795 46.134102,157.950562 
	C29.644327,158.351715 16.535894,151.572800 6.723270,138.320786 
	C5.156122,136.204346 3.318152,134.288437 1.302690,132.139923 
	C1.000000,130.611115 1.000000,129.222214 1.000001,127.416664 
z"/>
<path fill="#2A1032" opacity="1.000000" stroke="none" 
	d="
M190.670822,21.173775 
	C191.444748,20.997751 191.888931,20.997766 193.128815,20.998234 
	C198.282837,20.665199 202.641159,20.331711 206.999481,19.998224 
	C208.066422,19.998270 209.133377,19.998316 210.967087,20.176460 
	C213.863586,20.573139 215.990997,20.818321 218.123444,21.005974 
	C231.639023,22.195328 244.308441,25.512154 254.149246,35.664471 
	C258.634644,40.291866 262.945526,45.088425 267.334320,49.809448 
	C269.888977,52.557510 272.833191,53.288563 276.331970,51.702553 
	C277.836182,51.020699 279.440918,50.560757 281.000000,50.000000 
	C281.000000,51.714359 281.000000,53.428715 281.000000,55.571541 
	C280.670349,56.048531 280.325287,56.049984 280.013306,56.152382 
	C268.708649,59.863068 268.517151,59.982170 262.255371,49.780296 
	C251.826599,32.789497 236.612350,24.062605 216.919067,23.125423 
	C203.413696,22.482719 189.785995,22.195358 177.028290,27.616442 
	C170.325333,30.464701 163.803116,33.988087 157.732147,38.010822 
	C150.096420,43.070404 143.316864,42.864719 136.224442,37.226681 
	C132.727692,34.446972 128.775635,32.230564 124.979767,29.838352 
	C113.511360,22.610798 100.678902,23.971882 88.052246,24.023396 
	C80.764633,24.053125 73.408287,24.647850 66.203323,23.871056 
	C51.584183,22.294909 37.299580,22.144144 23.372791,28.956989 
	C28.761837,22.673594 36.660534,21.233355 44.389969,21.184807 
	C65.486008,21.052311 86.597908,21.415741 107.681122,22.191523 
	C117.185028,22.541231 125.860497,26.710899 133.322281,32.391739 
	C142.025360,39.017601 150.021500,38.962414 159.594543,33.963860 
	C169.372894,28.858088 180.054764,25.482716 190.670822,21.173775 
z"/>
<path fill="#1E0E24" opacity="1.000000" stroke="none" 
	d="
M237.468658,175.000000 
	C241.047012,172.842392 245.103363,170.702072 249.138580,168.522644 
	C253.812805,165.998108 258.887939,163.978378 263.026154,160.758911 
	C268.219879,156.718246 273.834259,155.132675 280.569458,155.002441 
	C281.000000,161.620758 281.000000,168.241501 281.000000,175.000000 
	C266.646027,175.000000 252.291672,175.000000 237.468658,175.000000 
z"/>
<path fill="#281130" opacity="1.000000" stroke="none" 
	d="
M281.000000,49.625000 
	C279.440918,50.560757 277.836182,51.020699 276.331970,51.702553 
	C272.833191,53.288563 269.888977,52.557510 267.334320,49.809448 
	C262.945526,45.088425 258.634644,40.291866 254.149246,35.664471 
	C244.308441,25.512154 231.639023,22.195328 218.123444,21.005974 
	C215.990997,20.818321 213.863586,20.573139 211.367188,20.176422 
	C215.921707,20.006227 220.910828,19.491457 225.751389,20.120195 
	C240.226135,22.000309 252.235626,28.804443 261.596680,39.943790 
	C266.599121,45.896572 272.057007,49.689064 280.584839,47.020641 
	C281.000000,47.750000 281.000000,48.500000 281.000000,49.625000 
z"/>
<path fill="#C329F5" opacity="1.000000" stroke="none" 
	d="
M245.386993,130.027512 
	C245.634109,133.355804 244.028534,134.587677 239.962265,134.034882 
	C221.382217,134.077911 203.688614,134.124252 185.994995,134.170593 
	C183.622360,134.125671 181.249710,134.080750 178.436981,134.103882 
	C177.034775,133.357452 176.072662,132.542984 175.111771,130.910217 
	C175.112976,126.831566 175.112976,123.571220 175.112976,120.169090 
	C171.270493,120.169090 168.132187,120.169090 164.993896,120.169090 
	C163.872253,120.025597 162.750626,119.882095 161.167969,119.679626 
	C161.167969,115.424072 161.167969,111.216263 161.547668,106.538177 
	C162.617340,105.988960 163.307343,105.910011 164.393524,105.897583 
	C165.857452,105.920509 166.925186,105.876907 168.426605,105.901337 
	C170.905197,105.924248 172.950073,105.879143 175.441055,105.900269 
	C178.588806,105.923111 181.290451,105.879730 184.430206,105.904320 
	C186.145981,106.058693 187.423645,106.145088 189.332153,106.274147 
	C189.332153,110.960335 189.332153,115.354591 189.332153,119.727562 
	C203.598801,119.727562 217.204025,119.727562 230.938980,119.727562 
	C230.938980,118.296478 230.938980,117.148727 231.020538,115.538391 
	C231.102097,107.504913 231.102097,99.934006 231.102097,92.170929 
	C226.583344,92.170929 222.790085,92.170929 218.532166,92.107330 
	C205.042404,92.084190 192.017288,92.124657 178.574280,92.102005 
	C177.159393,90.971191 175.430191,89.983711 175.302795,88.820763 
	C174.921082,85.336220 175.165451,81.783089 175.165451,78.166702 
	C171.540070,78.166702 168.767471,78.166702 165.570572,78.101898 
	C162.317383,78.383621 160.971786,77.532661 161.095016,74.287422 
	C161.300873,68.867287 161.020172,63.428669 161.024109,57.574577 
	C161.049210,55.434116 160.994492,53.716908 161.021973,51.714626 
	C161.101196,51.034599 161.098206,50.639645 161.499664,50.175362 
	C163.267136,50.015846 164.630112,49.925667 166.445038,49.903934 
	C169.569138,49.972385 172.241302,49.972385 174.949570,49.972385 
	C174.949570,46.818108 174.949570,44.408203 175.029388,41.627068 
	C175.052948,40.503281 174.996689,39.750725 175.028656,38.637871 
	C176.077072,37.572716 177.037262,36.867863 178.149490,36.494347 
	C180.502670,37.549816 182.741241,38.986710 184.898422,38.873440 
	C193.764206,38.407917 199.063263,43.708054 203.667999,49.908627 
	C202.895081,50.039154 202.451569,50.101357 201.548172,50.095833 
	C197.319290,50.028103 193.550262,50.028103 189.514069,50.028103 
	C189.514069,59.521618 189.514069,68.517670 189.514069,77.834007 
	C202.908508,77.834007 215.957520,77.834007 229.460876,77.895309 
	C233.277588,77.915016 236.639938,77.873421 240.441177,77.897156 
	C242.250107,78.101341 243.620163,78.240196 245.354889,78.416016 
	C245.354889,83.110756 245.354889,87.313362 245.354889,91.834816 
	C248.184540,91.834816 250.594788,91.834816 253.445511,91.900017 
	C255.477066,92.052834 257.068146,92.140457 259.382996,92.267929 
	C259.382996,100.363571 259.382996,108.194504 259.382996,116.025436 
	C258.851196,117.350723 258.319366,118.675995 256.942871,120.010796 
	C252.572235,120.020317 249.046280,120.020317 245.386993,120.020317 
	C245.386993,123.862411 245.386993,126.944962 245.386993,130.027512 
z"/>
<path fill="#C72AF4" opacity="1.000000" stroke="none" 
	d="
M119.005676,35.833080 
	C120.946991,36.300613 122.888298,36.768150 124.856674,38.028030 
	C124.943504,40.212982 125.003273,41.605595 124.975494,43.420223 
	C124.946083,45.560745 125.004219,47.279251 124.974792,49.428650 
	C124.943565,51.905731 124.999886,53.951920 124.969566,56.459942 
	C124.942558,74.282082 125.002190,91.642387 124.982605,109.435043 
	C124.958214,111.912415 125.013039,113.957436 124.985092,116.398933 
	C125.405510,121.009445 122.104454,119.717064 119.586494,120.103767 
	C117.439384,119.968781 115.717751,119.904053 114.033752,119.488892 
	C114.418190,113.584068 111.111435,107.943581 114.492989,102.415627 
	C114.763817,101.972885 114.262939,100.616241 113.721992,100.188469 
	C109.270195,96.668060 109.245796,91.685410 108.719673,86.673706 
	C107.932999,79.180183 103.669060,74.836784 96.968254,73.561111 
	C96.792931,70.741074 96.695824,68.361473 96.671463,65.532715 
	C96.694221,62.049675 96.644234,59.015789 96.669945,55.550297 
	C96.698059,53.079464 96.650482,51.040241 96.685593,48.544456 
	C96.865288,44.067627 96.962288,40.047352 97.523956,36.012695 
	C104.994316,35.943233 111.999992,35.888157 119.005676,35.833080 
z"/>
<path fill="#34133D" opacity="1.000000" stroke="none" 
	d="
M161.095200,50.244694 
	C161.098206,50.639645 161.101196,51.034599 160.698776,51.822205 
	C159.035873,53.477985 157.531570,54.576527 156.561462,56.031307 
	C150.832092,64.623131 151.250824,73.247971 155.573685,82.501884 
	C159.058578,89.962021 161.238464,98.031776 163.997330,105.831070 
	C163.307343,105.910011 162.617340,105.988960 161.579742,106.080933 
	C159.464508,103.169403 157.901352,100.092064 155.865738,97.367737 
	C154.182114,95.114449 151.940567,93.278038 149.946228,91.256912 
	C147.992737,93.265175 145.247696,94.936066 144.223022,97.340202 
	C139.824509,107.660110 135.312424,117.789696 126.888779,125.644348 
	C116.892975,134.964966 105.169655,138.301483 91.621819,137.400742 
	C82.023491,136.762558 72.310417,137.049484 62.695679,137.662491 
	C50.826050,138.419250 39.433517,138.108170 29.210241,130.864410 
	C22.629932,126.201881 18.592731,119.707649 16.104475,112.435539 
	C9.198244,92.251579 9.600000,71.858643 16.067812,51.645538 
	C17.819168,46.172230 20.281168,40.745979 26.552235,38.478104 
	C26.920578,40.904167 26.875074,42.947571 26.515038,45.104706 
	C23.884123,48.732349 20.685207,51.953083 19.403658,55.810776 
	C13.762209,72.792557 13.688276,90.145073 18.760218,107.202202 
	C22.078802,118.362732 28.341530,127.665115 40.702232,131.455109 
	C41.133392,132.538300 41.493694,133.764328 41.811829,133.753494 
	C46.227894,133.602951 50.638184,133.282852 55.448753,132.908661 
	C57.821136,132.542221 59.793411,132.048080 61.768364,132.037155 
	C73.383324,131.972824 84.998917,132.021149 96.740349,132.446198 
	C100.242905,133.184952 103.619408,133.509018 107.369064,133.900650 
	C108.701378,133.279099 109.660538,132.589966 110.729073,131.930023 
	C110.838440,131.959198 111.055107,132.024857 111.420609,131.977783 
	C121.325317,128.870880 127.817543,122.273193 132.572327,113.780380 
	C139.694946,101.058228 141.795410,86.900269 143.823685,72.777573 
	C144.129944,70.645050 143.363388,68.139534 142.449829,66.093803 
	C140.163651,60.974346 137.508026,56.019867 135.303009,51.138294 
	C137.258957,53.109955 138.980789,54.885986 140.553101,56.785778 
	C145.072784,62.246834 149.141754,62.036728 153.414200,56.516918 
	C155.574387,53.726074 158.447830,51.487312 161.022430,49.310406 
	C161.062469,49.829487 161.078842,50.037090 161.095200,50.244694 
z"/>
<path fill="#BF28F5" opacity="1.000000" stroke="none" 
	d="
M203.997375,49.840305 
	C199.063263,43.708054 193.764206,38.407917 184.898422,38.873440 
	C182.741241,38.986710 180.502670,37.549816 178.613907,36.425491 
	C197.952011,35.960392 216.977707,35.895496 236.003418,35.830597 
	C238.047882,35.877026 240.092331,35.923450 242.570251,35.900597 
	C247.024384,36.757141 244.392197,40.043442 245.199188,42.955215 
	C245.170731,45.734753 245.170731,47.658485 245.170731,49.853882 
	C247.485306,49.853882 249.253891,49.853882 251.022491,49.853882 
	C253.479568,49.853882 255.936661,49.853882 259.038086,49.853882 
	C259.038086,54.230572 259.038086,58.152363 259.104187,62.534561 
	C257.713654,63.342381 256.257019,63.689793 253.951813,64.028465 
	C249.737228,64.068207 246.371170,64.116692 242.558807,64.098801 
	C239.409286,64.078499 236.706100,64.124565 233.589417,64.092392 
	C232.506851,62.785919 231.369324,61.597656 231.260468,60.321640 
	C230.984131,57.082237 231.168655,53.803524 231.168655,49.840305 
	C221.753418,49.840305 212.875397,49.840305 203.997375,49.840305 
z"/>
<path fill="#32123B" opacity="1.000000" stroke="none" 
	d="
M235.875397,35.513302 
	C216.977707,35.895496 197.952011,35.960392 178.461884,36.094147 
	C177.037262,36.867863 176.077072,37.572716 174.666962,38.680252 
	C169.810959,42.388260 165.404861,45.693596 160.998779,48.998932 
	C158.447830,51.487312 155.574387,53.726074 153.414200,56.516918 
	C149.141754,62.036728 145.072784,62.246834 140.553101,56.785778 
	C138.980789,54.885986 137.258957,53.109955 135.150055,50.854622 
	C133.463226,48.954433 132.231766,47.477020 130.872253,45.736992 
	C130.162918,44.982838 129.581650,44.491295 128.702057,43.832123 
	C127.290169,43.442398 126.176613,43.220303 125.063049,42.998207 
	C125.003273,41.605595 124.943504,40.212982 124.970650,38.409760 
	C127.281097,39.415272 129.602219,40.702618 131.696198,42.289665 
	C133.272156,43.484097 134.557861,45.061810 135.970947,46.470741 
	C145.225388,55.698006 148.616089,55.763809 157.820755,46.656769 
	C167.077545,37.498154 177.934814,31.140156 190.910583,29.660824 
	C204.479507,28.113869 218.147644,28.047409 231.422073,32.200089 
	C233.019882,32.699936 234.313034,34.173664 235.875397,35.513302 
z"/>
<path fill="#34133D" opacity="1.000000" stroke="none" 
	d="
M118.879242,35.517822 
	C111.999992,35.888157 104.994316,35.943233 97.246033,35.990345 
	C96.317581,35.978554 96.131729,35.974724 95.508636,35.978146 
	C91.068970,36.322292 87.066551,36.659191 82.786667,36.668327 
	C78.022881,36.232349 73.536560,36.124138 68.673393,36.139435 
	C63.784256,36.209282 59.271961,36.155613 54.306984,36.070347 
	C45.900993,35.968842 37.947681,35.898933 29.994373,35.829025 
	C31.748411,34.471035 33.311287,32.649929 35.288918,31.833616 
	C44.872978,27.877565 54.833466,29.836290 64.723618,30.203630 
	C73.267258,30.520960 81.836716,30.089352 90.386658,30.307108 
	C97.961075,30.500019 105.548492,30.907074 113.076279,31.719196 
	C115.070511,31.934343 116.866043,33.991302 118.879242,35.517822 
z"/>
<path fill="#C72AF4" opacity="1.000000" stroke="none" 
	d="
M29.624454,35.895855 
	C37.947681,35.898933 45.900993,35.968842 54.330078,36.507721 
	C54.889011,39.316475 54.972168,41.656254 54.970074,44.433807 
	C54.941990,47.246029 54.999157,49.620476 54.973099,52.407257 
	C54.797867,54.214680 54.705860,55.609776 54.299088,56.903355 
	C51.753113,55.106617 49.358074,53.585312 47.329834,51.674637 
	C44.423668,48.936935 41.002289,48.013279 37.736065,49.891830 
	C33.726147,52.198112 30.526566,51.162067 27.097984,48.605553 
	C26.963884,47.135296 26.896729,46.063137 26.829571,44.990974 
	C26.875074,42.947571 26.920578,40.904167 26.897236,38.427498 
	C27.637104,37.317051 28.445820,36.639870 29.624454,35.895855 
z"/>
<path fill="#34133D" opacity="1.000000" stroke="none" 
	d="
M165.102966,120.487900 
	C168.132187,120.169090 171.270493,120.169090 175.112976,120.169090 
	C175.112976,123.571220 175.112976,126.831566 175.025787,130.547089 
	C171.696411,127.603745 168.454224,124.205223 165.102966,120.487900 
z"/>
<path fill="#40144C" opacity="1.000000" stroke="none" 
	d="
M250.919601,49.530724 
	C249.253891,49.853882 247.485306,49.853882 245.170731,49.853882 
	C245.170731,47.658485 245.170731,45.734753 245.267029,43.379715 
	C247.181122,45.034790 248.998917,47.121178 250.919601,49.530724 
z"/>
<path fill="#2A1032" opacity="1.000000" stroke="none" 
	d="
M6.172972,69.645691 
	C6.464661,65.468491 6.932292,60.937656 7.697629,56.202591 
	C7.446528,60.429592 6.897721,64.860825 6.172972,69.645691 
z"/>
<path fill="#2A1032" opacity="1.000000" stroke="none" 
	d="
M8.190800,53.706165 
	C9.126561,50.767345 10.255846,47.535252 11.690844,44.150784 
	C10.792478,47.136570 9.588399,50.274731 8.190800,53.706165 
z"/>
<path fill="#2A1032" opacity="1.000000" stroke="none" 
	d="
M12.259579,42.789425 
	C13.444995,40.404381 14.891020,37.810066 16.668409,35.107876 
	C15.506577,37.526718 14.013383,40.053436 12.259579,42.789425 
z"/>
<path fill="#3B1445" opacity="1.000000" stroke="none" 
	d="
M243.005127,64.165176 
	C246.371170,64.116692 249.737228,64.068207 253.557465,64.090027 
	C257.233887,73.197701 261.215485,82.055405 263.411438,91.335625 
	C264.874939,97.520378 264.059448,104.323433 263.671265,110.814323 
	C263.568268,112.536674 261.277130,114.128174 259.686829,115.902596 
	C259.382996,108.194504 259.382996,100.363571 259.382996,92.267929 
	C257.068146,92.140457 255.477066,92.052834 253.425995,91.523270 
	C251.933243,88.485764 250.838531,85.912849 249.880020,83.290146 
	C247.554657,76.927483 245.292648,70.541664 243.005127,64.165176 
z"/>
<path fill="#36133F" opacity="1.000000" stroke="none" 
	d="
M186.160934,134.464920 
	C203.688614,134.124252 221.382217,134.077911 239.540390,134.100281 
	C238.569458,135.193268 237.274872,136.698349 235.676498,137.166748 
	C221.157333,141.421600 206.507736,140.503464 191.897308,137.702347 
	C189.924896,137.324203 188.178131,135.769272 186.160934,134.464920 
z"/>
<path fill="#3B1445" opacity="1.000000" stroke="none" 
	d="
M245.737213,130.007721 
	C245.386993,126.944962 245.386993,123.862411 245.386993,120.020317 
	C249.046280,120.020317 252.572235,120.020317 256.554840,120.091095 
	C253.370132,123.437218 249.728775,126.712570 245.737213,130.007721 
z"/>
<path fill="#281130" opacity="1.000000" stroke="none" 
	d="
M206.631134,19.820343 
	C202.641159,20.331711 198.282837,20.665199 193.461975,20.998184 
	C197.097534,17.384584 201.746201,19.159891 206.631134,19.820343 
z"/>
<path fill="#441550" opacity="1.000000" stroke="none" 
	d="
M178.992172,92.165115 
	C192.017288,92.124657 205.042404,92.084190 218.512115,92.496307 
	C218.775574,93.925117 218.684631,94.928551 218.399521,95.873421 
	C215.142044,106.669151 219.598450,113.838997 230.938980,116.000969 
	C230.938980,117.148727 230.938980,118.296478 230.938980,119.727562 
	C217.204025,119.727562 203.598801,119.727562 189.332153,119.727562 
	C189.332153,115.354591 189.332153,110.960335 189.332153,106.274147 
	C187.423645,106.145088 186.145981,106.058693 184.386047,105.540855 
	C182.266571,100.794655 180.629379,96.479889 178.992172,92.165115 
z"/>
<path fill="#461552" opacity="1.000000" stroke="none" 
	d="
M229.006516,77.834007 
	C215.957520,77.834007 202.908508,77.834007 189.514069,77.834007 
	C189.514069,68.517670 189.514069,59.521618 189.514069,50.028103 
	C193.550262,50.028103 197.319290,50.028103 201.656677,50.408127 
	C206.180954,54.960815 210.143616,59.127083 214.090210,63.308514 
	C216.516846,65.879501 218.829605,68.565239 221.357651,71.031143 
	C223.797653,73.411163 226.448364,75.575134 229.006516,77.834007 
z"/>
<path fill="#40144C" opacity="1.000000" stroke="none" 
	d="
M229.460876,77.895309 
	C226.448364,75.575134 223.797653,73.411163 221.357651,71.031143 
	C218.829605,68.565239 216.516846,65.879501 214.090210,63.308514 
	C210.143616,59.127083 206.180954,54.960815 202.116547,50.475853 
	C202.451569,50.101357 202.895081,50.039154 203.667999,49.908627 
	C212.875397,49.840305 221.753418,49.840305 231.168655,49.840305 
	C231.168655,53.803524 230.984131,57.082237 231.260468,60.321640 
	C231.369324,61.597656 232.506851,62.785919 233.634186,64.451012 
	C236.062378,69.202522 238.032349,73.517174 240.002304,77.831825 
	C236.639938,77.873421 233.277588,77.915016 229.460876,77.895309 
z"/>
<path fill="#461552" opacity="1.000000" stroke="none" 
	d="
M231.020538,115.538391 
	C219.598450,113.838997 215.142044,106.669151 218.399521,95.873421 
	C218.684631,94.928551 218.775574,93.925117 218.976761,92.559906 
	C222.790085,92.170929 226.583344,92.170929 231.102097,92.170929 
	C231.102097,99.934006 231.102097,107.504913 231.020538,115.538391 
z"/>
<path fill="#3B1445" opacity="1.000000" stroke="none" 
	d="
M160.944290,57.997833 
	C161.020172,63.428669 161.300873,68.867287 161.095016,74.287422 
	C160.971786,77.532661 162.317383,78.383621 165.591125,78.488037 
	C166.771744,81.483124 167.409531,84.060623 168.262390,86.564865 
	C170.455734,93.005241 172.744385,99.413162 174.994965,105.834045 
	C172.950073,105.879143 170.905197,105.924248 168.335709,105.532715 
	C164.547501,95.239258 160.945297,85.477295 158.147476,75.490005 
	C156.473770,69.515427 156.214066,63.213928 160.944290,57.997833 
z"/>
<path fill="#36133F" opacity="1.000000" stroke="none" 
	d="
M161.024109,57.574577 
	C156.214066,63.213928 156.473770,69.515427 158.147476,75.490005 
	C160.945297,85.477295 164.547501,95.239258 167.902008,105.464691 
	C166.925186,105.876907 165.857452,105.920509 164.393524,105.897583 
	C161.238464,98.031776 159.058578,89.962021 155.573685,82.501884 
	C151.250824,73.247971 150.832092,64.623131 156.561462,56.031307 
	C157.531570,54.576527 159.035873,53.477985 160.616577,52.107281 
	C160.994492,53.716908 161.049210,55.434116 161.024109,57.574577 
z"/>
<path fill="#3E1449" opacity="1.000000" stroke="none" 
	d="
M175.441055,105.900269 
	C172.744385,99.413162 170.455734,93.005241 168.262390,86.564865 
	C167.409531,84.060623 166.771744,81.483124 166.015442,78.552841 
	C168.767471,78.166702 171.540070,78.166702 175.165451,78.166702 
	C175.165451,81.783089 174.921082,85.336220 175.302795,88.820763 
	C175.430191,89.983711 177.159393,90.971191 178.574280,92.102005 
	C180.629379,96.479889 182.266571,100.794655 183.947937,105.472885 
	C181.290451,105.879730 178.588806,105.923111 175.441055,105.900269 
z"/>
<path fill="#3E1449" opacity="1.000000" stroke="none" 
	d="
M240.441177,77.897156 
	C238.032349,73.517174 236.062378,69.202522 234.047653,64.529251 
	C236.706100,64.124565 239.409286,64.078499 242.558807,64.098801 
	C245.292648,70.541664 247.554657,76.927483 249.880020,83.290146 
	C250.838531,85.912849 251.933243,88.485764 252.985504,91.458069 
	C250.594788,91.834816 248.184540,91.834816 245.354889,91.834816 
	C245.354889,87.313362 245.354889,83.110756 245.354889,78.416016 
	C243.620163,78.240196 242.250107,78.101341 240.441177,77.897156 
z"/>
<path fill="#36133F" opacity="1.000000" stroke="none" 
	d="
M161.022430,49.310402 
	C165.404861,45.693596 169.810959,42.388260 174.578735,39.040550 
	C174.996689,39.750725 175.052948,40.503281 174.702316,41.730530 
	C171.527985,44.748646 168.760544,47.292068 165.993103,49.835487 
	C164.630112,49.925667 163.267136,50.015846 161.499664,50.175362 
	C161.078842,50.037090 161.062469,49.829487 161.022430,49.310402 
z"/>
<path fill="#3B1445" opacity="1.000000" stroke="none" 
	d="
M166.445038,49.903938 
	C168.760544,47.292068 171.527985,44.748646 174.622498,42.101765 
	C174.949570,44.408203 174.949570,46.818108 174.949570,49.972385 
	C172.241302,49.972385 169.569138,49.972385 166.445038,49.903938 
z"/>
<path fill="#CC2BF6" opacity="1.000000" stroke="none" 
	d="
M27.164925,49.003647 
	C30.526566,51.162067 33.726147,52.198112 37.736065,49.891830 
	C41.002289,48.013279 44.423668,48.936935 47.329834,51.674637 
	C49.358074,53.585312 51.753113,55.106617 54.378433,57.314095 
	C54.864246,59.216270 54.955940,60.606197 54.964386,62.454681 
	C54.935303,67.273987 54.989468,71.634720 54.961994,76.457054 
	C54.880356,81.811935 54.880356,86.705223 54.880356,91.639893 
	C59.895905,91.639893 64.104721,91.639893 68.629768,91.639893 
	C68.629768,87.177589 68.629768,83.077469 68.698486,78.518288 
	C68.720490,73.696198 68.673775,69.333160 68.701172,64.520500 
	C68.726074,60.707905 68.676872,57.344936 68.709732,53.653881 
	C68.877441,52.884029 68.963097,52.442268 69.404327,52.047256 
	C74.051659,53.734150 78.343407,55.374294 82.723732,57.340897 
	C82.898422,58.109245 82.984535,58.551132 82.982651,59.436325 
	C82.948456,62.584827 83.002251,65.290031 82.971497,68.453613 
	C82.940674,73.272728 82.994392,77.633453 82.965614,82.446075 
	C82.883118,85.805634 82.883118,88.713295 82.883118,91.639587 
	C87.889030,91.639587 92.101334,91.639587 96.622955,91.639587 
	C96.622955,87.169243 96.622955,83.066727 96.692139,78.554169 
	C96.856377,76.763268 96.951424,75.382416 97.046471,74.001556 
	C103.669060,74.836784 107.932999,79.180183 108.719673,86.673706 
	C109.245796,91.685410 109.270195,96.668060 113.721992,100.188469 
	C114.262939,100.616241 114.763817,101.972885 114.492989,102.415627 
	C111.111435,107.943581 114.418190,113.584068 113.613312,119.559258 
	C108.532463,121.150681 111.754829,124.662003 110.978851,127.417877 
	C110.950554,129.229172 111.002831,130.627014 111.055107,132.024857 
	C111.055107,132.024857 110.838440,131.959198 110.416016,131.964890 
	C108.994354,132.591415 107.995132,133.212250 106.995911,133.833084 
	C103.619408,133.509018 100.242905,133.184952 96.830963,132.015121 
	C96.735207,129.121582 96.674896,127.073807 96.700836,124.605370 
	C97.317711,121.045036 96.169243,119.641785 92.831596,119.956635 
	C90.393776,120.186592 87.860901,120.292931 85.480652,119.855072 
	C84.385178,119.653549 83.553787,118.016464 82.688568,116.607910 
	C82.720757,114.466904 82.667030,112.748329 82.695862,110.610580 
	C82.700493,108.355011 83.514488,106.002930 80.294823,106.018349 
	C76.597282,106.036057 72.899574,106.022453 69.056320,106.022453 
	C69.056320,108.110748 69.056320,109.557709 68.982307,111.429070 
	C68.961029,113.570831 69.013763,115.288200 68.978096,117.417923 
	C67.719505,118.553368 66.593498,119.796051 65.370651,119.900055 
	C61.990425,120.187523 58.569763,119.999557 55.050800,119.999557 
	C55.050800,122.425842 55.050800,124.214752 54.971996,126.436142 
	C54.945423,128.913818 54.997654,130.959000 55.049881,133.004196 
	C50.638184,133.282852 46.227894,133.602951 41.811829,133.753494 
	C41.493694,133.764328 41.133392,132.538300 40.790001,131.003082 
	C40.787312,126.867119 40.787312,123.615440 40.787312,119.871559 
	C35.826996,119.871559 31.588457,119.871559 26.826061,119.871559 
	C26.826061,115.917076 26.826061,112.462471 26.895512,108.543243 
	C26.919792,91.050049 26.874620,74.021484 26.893457,56.552925 
	C27.026619,53.743168 27.095772,51.373405 27.164925,49.003647 
z"/>
<path fill="#36133F" opacity="1.000000" stroke="none" 
	d="
M111.420609,131.977783 
	C111.002831,130.627014 110.950554,129.229172 111.331993,127.371063 
	C114.514458,124.665207 117.263214,122.419617 120.011963,120.174026 
	C122.104454,119.717064 125.405510,121.009445 125.303101,116.282532 
	C126.702934,114.702965 128.033966,113.799446 128.650681,112.544807 
	C136.410065,96.759308 138.721115,80.215141 134.358002,63.114571 
	C132.950821,57.599266 130.903046,51.886204 125.062347,48.997757 
	C125.004219,47.279251 124.946083,45.560745 124.975494,43.420223 
	C126.176613,43.220303 127.290169,43.442398 128.830048,44.094791 
	C129.837677,45.016598 130.418991,45.508102 131.000290,45.999607 
	C132.231766,47.477020 133.463226,48.954433 134.847656,50.715523 
	C137.508026,56.019867 140.163651,60.974346 142.449829,66.093803 
	C143.363388,68.139534 144.129944,70.645050 143.823685,72.777573 
	C141.795410,86.900269 139.694946,101.058228 132.572327,113.780380 
	C127.817543,122.273193 121.325317,128.870880 111.420609,131.977783 
z"/>
<path fill="#40144C" opacity="1.000000" stroke="none" 
	d="
M125.061813,109.002686 
	C125.002190,91.642387 124.942558,74.282082 125.270874,56.611813 
	C127.141167,59.022556 129.190567,61.583683 130.008835,64.491280 
	C133.780426,77.893272 132.401703,91.228485 128.496796,104.365875 
	C127.981735,106.098724 126.237022,107.466064 125.061813,109.002686 
z"/>
<path fill="#3B1445" opacity="1.000000" stroke="none" 
	d="
M124.982605,109.435036 
	C126.237022,107.466064 127.981735,106.098724 128.496796,104.365875 
	C132.401703,91.228485 133.780426,77.893272 130.008835,64.491280 
	C129.190567,61.583683 127.141167,59.022556 125.357513,56.149982 
	C124.999886,53.951920 124.943565,51.905731 124.974800,49.428650 
	C130.903046,51.886204 132.950821,57.599266 134.358002,63.114571 
	C138.721115,80.215141 136.410065,96.759308 128.650681,112.544807 
	C128.033966,113.799446 126.702934,114.702965 125.385864,115.886063 
	C125.013039,113.957436 124.958214,111.912415 124.982605,109.435036 
z"/>
<path fill="#561965" opacity="1.000000" stroke="none" 
	d="
M83.048111,81.994179 
	C82.994392,77.633453 82.940674,73.272728 83.371506,68.434418 
	C88.103607,67.298508 92.351158,66.640190 96.598717,65.981873 
	C96.695824,68.361473 96.792931,70.741074 96.968254,73.561111 
	C96.951424,75.382416 96.856377,76.763268 96.295151,78.559616 
	C91.568687,79.981461 87.308395,80.987823 83.048111,81.994179 
z"/>
<path fill="#4E175C" opacity="1.000000" stroke="none" 
	d="
M96.671463,65.532715 
	C92.351158,66.640190 88.103607,67.298508 83.456047,67.976028 
	C83.002251,65.290031 82.948456,62.584827 83.354813,59.345467 
	C88.074730,57.868172 92.334488,56.925037 96.594254,55.981907 
	C96.644234,59.015789 96.694221,62.049675 96.671463,65.532715 
z"/>
<path fill="#461552" opacity="1.000000" stroke="none" 
	d="
M96.669952,55.550297 
	C92.334488,56.925037 88.074730,57.868172 83.442810,58.902161 
	C82.984535,58.551132 82.898422,58.109245 82.808945,56.917503 
	C82.893677,54.444710 82.981781,52.721767 83.478714,50.977840 
	C88.126007,50.304909 92.364449,49.652962 96.602898,49.001015 
	C96.650482,51.040241 96.698059,53.079464 96.669952,55.550297 
z"/>
<path fill="#441550" opacity="1.000000" stroke="none" 
	d="
M96.685593,48.544456 
	C92.364449,49.652962 88.126007,50.304909 83.397552,50.545494 
	C82.958427,48.087517 83.009315,46.040909 83.489380,43.992775 
	C85.696075,43.810875 87.473175,43.483025 89.251167,43.478100 
	C94.340813,43.464024 96.824326,41.247829 95.945885,35.970898 
	C96.131729,35.974724 96.317581,35.978554 96.781357,36.004730 
	C96.962288,40.047352 96.865288,44.067627 96.685593,48.544456 
z"/>
<path fill="#3E1449" opacity="1.000000" stroke="none" 
	d="
M119.586494,120.103767 
	C117.263214,122.419617 114.514458,124.665207 111.412567,126.957603 
	C111.754829,124.662003 108.532463,121.150681 113.575668,119.909691 
	C115.717751,119.904053 117.439384,119.968781 119.586494,120.103767 
z"/>
<path fill="#3B1445" opacity="1.000000" stroke="none" 
	d="
M27.097984,48.605553 
	C27.095772,51.373405 27.026619,53.743168 26.597809,56.719620 
	C25.209505,59.349094 23.780985,61.267170 23.219326,63.412224 
	C20.317406,74.495041 20.028357,85.788887 22.013525,96.997665 
	C22.749783,101.154778 25.172462,105.013222 26.826061,109.007866 
	C26.826061,112.462471 26.826061,115.917076 26.826061,119.871559 
	C31.588457,119.871559 35.826996,119.871559 40.787312,119.871559 
	C40.787312,123.615440 40.787312,126.867119 40.699543,130.570831 
	C28.341530,127.665115 22.078802,118.362732 18.760218,107.202202 
	C13.688276,90.145073 13.762209,72.792557 19.403658,55.810776 
	C20.685207,51.953083 23.884123,48.732349 26.515038,45.104706 
	C26.896729,46.063137 26.963884,47.135296 27.097984,48.605553 
z"/>
<path fill="#3E1449" opacity="1.000000" stroke="none" 
	d="
M55.448753,132.908661 
	C54.997654,130.959000 54.945423,128.913818 55.405819,126.431961 
	C69.483826,125.672211 83.049210,125.349121 96.614586,125.026031 
	C96.674896,127.073807 96.735207,129.121582 96.704903,131.600433 
	C84.998917,132.021149 73.383324,131.972824 61.768364,132.037155 
	C59.793411,132.048080 57.821136,132.542221 55.448753,132.908661 
z"/>
<path fill="#C72AF4" opacity="1.000000" stroke="none" 
	d="
M107.369064,133.900665 
	C107.995132,133.212250 108.994354,132.591415 110.306641,131.935715 
	C109.660538,132.589966 108.701378,133.279099 107.369064,133.900665 
z"/>
<path fill="#34133D" opacity="1.000000" stroke="none" 
	d="
M130.872253,45.736992 
	C130.418991,45.508102 129.837677,45.016598 129.128372,44.262421 
	C129.581650,44.491295 130.162918,44.982838 130.872253,45.736992 
z"/>
<path fill="#C329F5" opacity="1.000000" stroke="none" 
	d="
M83.060204,43.994297 
	C83.009315,46.040909 82.958427,48.087517 82.988708,50.566475 
	C82.981781,52.721767 82.893677,54.444710 82.720367,56.591049 
	C78.343407,55.374294 74.051659,53.734150 69.321648,51.622246 
	C68.792328,49.424164 68.701263,47.697834 68.686600,45.525101 
	C68.858734,42.057766 68.954483,39.036846 69.050232,36.015923 
	C73.536560,36.124138 78.022881,36.232349 82.699921,37.099220 
	C82.947159,39.903347 83.003685,41.948822 83.060204,43.994297 
z"/>
<path fill="#3E1449" opacity="1.000000" stroke="none" 
	d="
M68.673393,36.139435 
	C68.954483,39.036846 68.858734,42.057766 68.312271,45.472412 
	C63.592819,45.242771 59.324070,44.619404 55.055328,43.996033 
	C54.972168,41.656254 54.889011,39.316475 54.782761,36.539322 
	C59.271961,36.155613 63.784256,36.209282 68.673393,36.139435 
z"/>
<path fill="#3B1445" opacity="1.000000" stroke="none" 
	d="
M83.489380,43.992775 
	C83.003685,41.948822 82.947159,39.903347 82.977386,37.426979 
	C87.066551,36.659191 91.068970,36.322292 95.508636,35.978146 
	C96.824326,41.247829 94.340813,43.464024 89.251167,43.478100 
	C87.473175,43.483025 85.696075,43.810875 83.489380,43.992775 
z"/>
<path fill="#4E175C" opacity="1.000000" stroke="none" 
	d="
M68.627670,53.981972 
	C68.676872,57.344936 68.726074,60.707905 68.338654,64.470718 
	C63.617233,63.912422 59.332436,62.954273 55.047638,61.996124 
	C54.955940,60.606197 54.864246,59.216270 54.693203,57.415607 
	C54.705860,55.609776 54.797867,54.214680 55.376610,52.428833 
	C60.118122,52.686039 64.372894,53.334007 68.627670,53.981972 
z"/>
<path fill="#461552" opacity="1.000000" stroke="none" 
	d="
M68.709732,53.653881 
	C64.372894,53.334007 60.118122,52.686039 55.459839,52.016502 
	C54.999157,49.620476 54.941990,47.246029 54.970070,44.433807 
	C59.324070,44.619404 63.592819,45.242771 68.235886,45.918823 
	C68.701263,47.697834 68.792328,49.424164 68.966064,51.575500 
	C68.963097,52.442268 68.877441,52.884029 68.709732,53.653881 
z"/>
<path fill="#461552" opacity="1.000000" stroke="none" 
	d="
M96.700836,124.605377 
	C83.049210,125.349121 69.483826,125.672211 55.484623,125.999481 
	C55.050800,124.214752 55.050800,122.425842 55.050800,119.999557 
	C58.569763,119.999557 61.990425,120.187523 65.370651,119.900055 
	C66.593498,119.796051 67.719505,118.553368 69.435623,117.418205 
	C74.188583,117.014198 78.395615,117.022263 82.602646,117.030334 
	C83.553787,118.016464 84.385178,119.653549 85.480652,119.855072 
	C87.860901,120.292931 90.393776,120.186592 92.831596,119.956635 
	C96.169243,119.641785 97.317711,121.045036 96.700836,124.605377 
z"/>
<path fill="#40144C" opacity="1.000000" stroke="none" 
	d="
M26.895512,108.543243 
	C25.172462,105.013222 22.749783,101.154778 22.013525,96.997665 
	C20.028357,85.788887 20.317406,74.495041 23.219326,63.412224 
	C23.780985,61.267170 25.209505,59.349094 26.533798,57.159618 
	C26.874620,74.021484 26.919792,91.050049 26.895512,108.543243 
z"/>
<path fill="#5F1A70" opacity="1.000000" stroke="none" 
	d="
M68.629768,78.977348 
	C68.629768,83.077469 68.629768,87.177589 68.629768,91.639893 
	C64.104721,91.639893 59.895905,91.639893 54.880356,91.639893 
	C54.880356,86.705223 54.880356,81.811935 55.349617,76.504326 
	C60.089176,77.052452 64.359474,78.014900 68.629768,78.977348 
z"/>
<path fill="#561965" opacity="1.000000" stroke="none" 
	d="
M68.698486,78.518288 
	C64.359474,78.014900 60.089176,77.052452 55.431259,76.042732 
	C54.989468,71.634720 54.935303,67.273987 54.964386,62.454685 
	C59.332436,62.954273 63.617233,63.912422 68.264542,64.920349 
	C68.673775,69.333160 68.720490,73.696198 68.698486,78.518288 
z"/>
<path fill="#5F1A70" opacity="1.000000" stroke="none" 
	d="
M82.965614,82.446075 
	C87.308395,80.987823 91.568687,79.981461 96.225967,78.969650 
	C96.622955,83.066727 96.622955,87.169243 96.622955,91.639587 
	C92.101334,91.639587 87.889030,91.639587 82.883118,91.639587 
	C82.883118,88.713295 82.883118,85.805634 82.965614,82.446075 
z"/>
<path fill="#4E175C" opacity="1.000000" stroke="none" 
	d="
M82.688568,116.607910 
	C78.395615,117.022263 74.188583,117.014198 69.524017,117.005852 
	C69.013763,115.288200 68.961029,113.570831 69.440613,111.428162 
	C74.186394,111.011818 78.399849,111.020782 82.613312,111.029747 
	C82.667030,112.748329 82.720757,114.466904 82.688568,116.607910 
z"/>
<path fill="#561965" opacity="1.000000" stroke="none" 
	d="
M82.695862,110.610580 
	C78.399849,111.020782 74.186394,111.011818 69.514633,111.003769 
	C69.056320,109.557709 69.056320,108.110748 69.056320,106.022453 
	C72.899574,106.022453 76.597282,106.036057 80.294823,106.018349 
	C83.514488,106.002930 82.700493,108.355011 82.695862,110.610580 
z"/>
</svg>